<?xml version="1.0" encoding="UTF-8" standalone="no"?><!DOCTYPE svg PUBLIC "-//W3C//DTD SVG 1.1//EN" "http://www.w3.org/Graphics/SVG/1.1/DTD/svg11.dtd"><svg width="100%" height="100%" viewBox="0 0 1920 1080" version="1.1" xmlns="http://www.w3.org/2000/svg" xmlns:xlink="http://www.w3.org/1999/xlink" xml:space="preserve" xmlns:serif="http://www.serif.com/" style="fill-rule:evenodd;clip-rule:evenodd;"><path d="M899,420l179,-1l-73,-263l-106,264Z" style="fill:#daebc0;fill-rule:nonzero;stroke:#daebc0;stroke-width:1.51px;"/><path d="M1005,156l-97,-27l-9,291l106,-264Z" style="fill:#c1dc9f;fill-rule:nonzero;stroke:#c1dc9f;stroke-width:1.51px;"/><path d="M1078,419l162,-15l-235,-248l73,263Z" style="fill:#dce4bc;fill-rule:nonzero;stroke:#dce4bc;stroke-width:1.51px;"/><path d="M908,129l-232,280l223,11l9,-291Z" style="fill:#d0eaaf;fill-rule:nonzero;stroke:#d0eaaf;stroke-width:1.51px;"/><path d="M1005,156l-123,-149l26,122l97,27Z" style="fill:#a1c188;fill-rule:nonzero;stroke:#a1c188;stroke-width:1.51px;"/><path d="M1053,-73l-171,80l123,149l48,-229Z" style="fill:#95b185;fill-rule:nonzero;stroke:#95b185;stroke-width:1.51px;"/><path d="M545,147l131,262l232,-280l-363,18Z" style="fill:#afd781;fill-rule:nonzero;stroke:#afd781;stroke-width:1.51px;"/><path d="M1283,39l-230,-112l-48,229l278,-117Z" style="fill:#9aac84;fill-rule:nonzero;stroke:#9aac84;stroke-width:1.51px;"/><path d="M1078,419l47,241l115,-256l-162,15Z" style="fill:#f7ecea;fill-rule:nonzero;stroke:#f7ecea;stroke-width:1.51px;"/><path d="M899,420l226,240l-47,-241l-179,1Z" style="fill:#f5f2ee;fill-rule:nonzero;stroke:#f5f2ee;stroke-width:1.51px;"/><path d="M858,678l267,-18l-226,-240l-41,258Z" style="fill:#f9f3f6;fill-rule:nonzero;stroke:#f9f3f6;stroke-width:1.51px;"/><path d="M1240,404l106,-256l-341,8l235,248Z" style="fill:#c5cd9c;fill-rule:nonzero;stroke:#c5cd9c;stroke-width:1.51px;"/><path d="M1346,148l-63,-109l-278,117l341,-8Z" style="fill:#a8b486;fill-rule:nonzero;stroke:#a8b486;stroke-width:1.51px;"/><path d="M676,409l182,269l41,-258l-223,-11Z" style="fill:#eef6e0;fill-rule:nonzero;stroke:#eef6e0;stroke-width:1.51px;"/><path d="M882,7l-337,140l363,-18l-26,-122Z" style="fill:#98bf79;fill-rule:nonzero;stroke:#98bf79;stroke-width:1.51px;"/><path d="M561,-23l-16,170l337,-140l-321,-30Z" style="fill:#81ae61;fill-rule:nonzero;stroke:#81ae61;stroke-width:1.51px;"/><path d="M1125,660l119,68l-4,-324l-115,256Z" style="fill:#fae0ee;fill-rule:nonzero;stroke:#fae0ee;stroke-width:1.51px;"/><path d="M1517,434l-27,-298l-144,12l171,286Z" style="fill:#bfae8b;fill-rule:nonzero;stroke:#bfae8b;stroke-width:1.51px;"/><path d="M1144,955l100,-227l-119,-68l19,295Z" style="fill:#f5c3df;fill-rule:nonzero;stroke:#f5c3df;stroke-width:1.51px;"/><path d="M1346,148l144,-12l-207,-97l63,109Z" style="fill:#a3a27d;fill-rule:nonzero;stroke:#a3a27d;stroke-width:1.51px;"/><path d="M1517,434l-171,-286l-106,256l277,30Z" style="fill:#d7c9af;fill-rule:nonzero;stroke:#d7c9af;stroke-width:1.51px;"/><path d="M1144,955l191,-113l-91,-114l-100,227Z" style="fill:#eeaace;fill-rule:nonzero;stroke:#eeaace;stroke-width:1.51px;"/><path d="M676,409l-75,264l257,5l-182,-269Z" style="fill:#eaefd7;fill-rule:nonzero;stroke:#eaefd7;stroke-width:1.51px;"/><path d="M377,375l224,298l75,-264l-299,-34Z" style="fill:#d1e9b0;fill-rule:nonzero;stroke:#d1e9b0;stroke-width:1.51px;"/><path d="M781,-247l-220,224l321,30l-101,-254Z" style="fill:#83a96d;fill-rule:nonzero;stroke:#83a96d;stroke-width:1.51px;"/><path d="M1538,638l-21,-204l-277,-30l298,234Z" style="fill:#eec9d6;fill-rule:nonzero;stroke:#eec9d6;stroke-width:1.51px;"/><path d="M1053,-73l-40,-187l-131,267l171,-80Z" style="fill:#90aa83;fill-rule:nonzero;stroke:#90aa83;stroke-width:1.51px;"/><path d="M1238,-214l-185,141l230,112l-45,-253Z" style="fill:#939d7f;fill-rule:nonzero;stroke:#939d7f;stroke-width:1.51px;"/><path d="M1578,-202l-340,-12l45,253l295,-241Z" style="fill:#8f8c75;fill-rule:nonzero;stroke:#8f8c75;stroke-width:1.51px;"/><path d="M1013,-260l-232,13l101,254l131,-267Z" style="fill:#8cab7d;fill-rule:nonzero;stroke:#8cab7d;stroke-width:1.51px;"/><path d="M545,147l-168,228l299,34l-131,-262Z" style="fill:#adda7a;fill-rule:nonzero;stroke:#adda7a;stroke-width:1.51px;"/><path d="M327,208l50,167l168,-228l-218,61Z" style="fill:#8bc34f;fill-rule:nonzero;stroke:#8bc34f;stroke-width:1.51px;"/><path d="M1244,728l294,-90l-298,-234l4,324Z" style="fill:#f6d2e7;fill-rule:nonzero;stroke:#f6d2e7;stroke-width:1.51px;"/><path d="M896,957l229,-297l-267,18l38,279Z" style="fill:#f4d5e7;fill-rule:nonzero;stroke:#f4d5e7;stroke-width:1.51px;"/><path d="M1811,156l-237,-148l-84,128l321,20Z" style="fill:#987a60;fill-rule:nonzero;stroke:#987a60;stroke-width:1.51px;"/><path d="M1335,842l203,-204l-294,90l91,114Z" style="fill:#f2b6d8;fill-rule:nonzero;stroke:#f2b6d8;stroke-width:1.51px;"/><path d="M1490,136l84,-128l-291,31l207,97Z" style="fill:#978c71;fill-rule:nonzero;stroke:#978c71;stroke-width:1.51px;"/><path d="M1811,156l-321,-20l27,298l294,-278Z" style="fill:#b9977a;fill-rule:nonzero;stroke:#b9977a;stroke-width:1.51px;"/><path d="M610,877l286,80l-38,-279l-248,199Z" style="fill:#e9c0c7;fill-rule:nonzero;stroke:#e9c0c7;stroke-width:1.51px;"/><path d="M323,18l4,190l218,-61l-222,-129Z" style="fill:#6bab36;fill-rule:nonzero;stroke:#6bab36;stroke-width:1.51px;"/><path d="M323,18l222,129l16,-170l-238,41Z" style="fill:#69a23f;fill-rule:nonzero;stroke:#69a23f;stroke-width:1.51px;"/><path d="M896,957l248,-2l-19,-295l-229,297Z" style="fill:#efb5d2;fill-rule:nonzero;stroke:#efb5d2;stroke-width:1.51px;"/><path d="M601,673l9,204l248,-199l-257,-5Z" style="fill:#e5d5c8;fill-rule:nonzero;stroke:#e5d5c8;stroke-width:1.51px;"/><path d="M438,858l172,19l-9,-204l-163,185Z" style="fill:#d1bfa4;fill-rule:nonzero;stroke:#d1bfa4;stroke-width:1.51px;"/><path d="M197,652l198,53l-18,-330l-180,277Z" style="fill:#b7cf96;fill-rule:nonzero;stroke:#b7cf96;stroke-width:1.51px;"/><path d="M377,375l18,330l206,-32l-224,-298Z" style="fill:#c9dda8;fill-rule:nonzero;stroke:#c9dda8;stroke-width:1.51px;"/><path d="M388,-316l-65,334l238,-41l-173,-293Z" style="fill:#599334;fill-rule:nonzero;stroke:#599334;stroke-width:1.51px;"/><path d="M1335,842l143,24l60,-228l-203,204Z" style="fill:#ea9fc8;fill-rule:nonzero;stroke:#ea9fc8;stroke-width:1.51px;"/><path d="M1475,1070l3,-204l-143,-24l140,228Z" style="fill:#de75ac;fill-rule:nonzero;stroke:#de75ac;stroke-width:1.51px;"/><path d="M1574,8l4,-210l-295,241l291,-31Z" style="fill:#8b7b69;fill-rule:nonzero;stroke:#8b7b69;stroke-width:1.51px;"/><path d="M395,705l43,153l163,-185l-206,32Z" style="fill:#cbc6a1;fill-rule:nonzero;stroke:#cbc6a1;stroke-width:1.51px;"/><path d="M668,1166l222,-78l6,-131l-228,209Z" style="fill:#c68a96;fill-rule:nonzero;stroke:#c68a96;stroke-width:1.51px;"/><path d="M1144,955l144,129l47,-242l-191,113Z" style="fill:#e382b2;fill-rule:nonzero;stroke:#e382b2;stroke-width:1.51px;"/><path d="M896,957l119,194l129,-196l-248,2Z" style="fill:#d98cad;fill-rule:nonzero;stroke:#d98cad;stroke-width:1.51px;"/><path d="M668,1166l228,-209l-286,-80l58,289Z" style="fill:#d29299;fill-rule:nonzero;stroke:#d29299;stroke-width:1.51px;"/><path d="M323,18l-151,158l155,32l-4,-190Z" style="fill:#5d9f2c;fill-rule:nonzero;stroke:#5d9f2c;stroke-width:1.51px;"/><path d="M327,208l-189,188l239,-21l-50,-167Z" style="fill:#8ec35c;fill-rule:nonzero;stroke:#8ec35c;stroke-width:1.51px;"/><path d="M395,705l-174,214l217,-61l-43,-153Z" style="fill:#b5a681;fill-rule:nonzero;stroke:#b5a681;stroke-width:1.51px;"/><path d="M161,27l11,149l151,-158l-162,9Z" style="fill:#4a8d22;fill-rule:nonzero;stroke:#4a8d22;stroke-width:1.51px;"/><path d="M1538,638l288,-141l-309,-63l21,204Z" style="fill:#e8a8c2;fill-rule:nonzero;stroke:#e8a8c2;stroke-width:1.51px;"/><path d="M1574,8l159,-107l-155,-103l-4,210Z" style="fill:#856559;fill-rule:nonzero;stroke:#856559;stroke-width:1.51px;"/><path d="M1478,866l242,-161l-182,-67l-60,228Z" style="fill:#e894c0;fill-rule:nonzero;stroke:#e894c0;stroke-width:1.51px;"/><path d="M1826,497l-15,-341l-294,278l309,63Z" style="fill:#cf9390;fill-rule:nonzero;stroke:#cf9390;stroke-width:1.51px;"/><path d="M1478,866l244,87l-2,-248l-242,161Z" style="fill:#da6ba5;fill-rule:nonzero;stroke:#da6ba5;stroke-width:1.51px;"/><path d="M1015,1151l273,-67l-144,-129l-129,196Z" style="fill:#ce7fa1;fill-rule:nonzero;stroke:#ce7fa1;stroke-width:1.51px;"/><path d="M1811,156l-78,-255l-159,107l237,148Z" style="fill:#865d51;fill-rule:nonzero;stroke:#865d51;stroke-width:1.51px;"/><path d="M890,1088l125,63l-119,-194l-6,131Z" style="fill:#cc8ba2;fill-rule:nonzero;stroke:#cc8ba2;stroke-width:1.51px;"/><path d="M172,176l-34,220l189,-188l-155,-32Z" style="fill:#74b041;fill-rule:nonzero;stroke:#74b041;stroke-width:1.51px;"/><path d="M1720,705l106,-208l-288,141l182,67Z" style="fill:#e794ba;fill-rule:nonzero;stroke:#e794ba;stroke-width:1.51px;"/><path d="M138,396l59,256l180,-277l-239,21Z" style="fill:#a4c984;fill-rule:nonzero;stroke:#a4c984;stroke-width:1.51px;"/><path d="M172,176l-266,7l232,213l34,-220Z" style="fill:#639d39;fill-rule:nonzero;stroke:#639d39;stroke-width:1.51px;"/><path d="M195,-310l-34,337l162,-9l-128,-328Z" style="fill:#3e7e20;fill-rule:nonzero;stroke:#3e7e20;stroke-width:1.51px;"/><path d="M1288,1084l187,-14l-140,-228l-47,242Z" style="fill:#d76da3;fill-rule:nonzero;stroke:#d76da3;stroke-width:1.51px;"/><path d="M1301,1290l174,-220l-187,14l13,206Z" style="fill:#c16692;fill-rule:nonzero;stroke:#c16692;stroke-width:1.51px;"/><path d="M417,1108l251,58l-58,-289l-193,231Z" style="fill:#b38472;fill-rule:nonzero;stroke:#b38472;stroke-width:1.51px;"/><path d="M417,1108l193,-231l-172,-19l-21,250Z" style="fill:#be907b;fill-rule:nonzero;stroke:#be907b;stroke-width:1.51px;"/><path d="M1475,1070l247,-117l-244,-87l-3,204Z" style="fill:#d25195;fill-rule:nonzero;stroke:#d25195;stroke-width:1.51px;"/><path d="M2051,643l-61,-255l-164,109l225,146Z" style="fill:#c6889b;fill-rule:nonzero;stroke:#c6889b;stroke-width:1.51px;"/><path d="M-26,890l247,29l-24,-267l-223,238Z" style="fill:#9b8f72;fill-rule:nonzero;stroke:#9b8f72;stroke-width:1.51px;"/><path d="M197,652l24,267l174,-214l-198,-53Z" style="fill:#afaf86;fill-rule:nonzero;stroke:#afaf86;stroke-width:1.51px;"/><path d="M221,919l196,189l21,-250l-217,61Z" style="fill:#ab8065;fill-rule:nonzero;stroke:#ab8065;stroke-width:1.51px;"/><path d="M1015,1151l286,139l-13,-206l-273,67Z" style="fill:#c7779a;fill-rule:nonzero;stroke:#c7779a;stroke-width:1.51px;"/><path d="M388,-316l-193,6l128,328l65,-334Z" style="fill:#488626;fill-rule:nonzero;stroke:#488626;stroke-width:1.51px;"/><path d="M2051,643l-225,-146l-106,208l331,-62Z" style="fill:#d184a5;fill-rule:nonzero;stroke:#d184a5;stroke-width:1.51px;"/><path d="M1826,497l164,-109l-179,-232l15,341Z" style="fill:#b68679;fill-rule:nonzero;stroke:#b68679;stroke-width:1.51px;"/><path d="M1811,156l183,-145l-261,-110l78,255Z" style="fill:#745242;fill-rule:nonzero;stroke:#745242;stroke-width:1.51px;"/><path d="M1990,388l12,-226l-191,-6l179,232Z" style="fill:#967453;fill-rule:nonzero;stroke:#967453;stroke-width:1.51px;"/><path d="M1475,1070l334,67l-87,-184l-247,117Z" style="fill:#b52974;fill-rule:nonzero;stroke:#b52974;stroke-width:1.51px;"/><path d="M2002,162l-8,-151l-183,145l191,6Z" style="fill:#7b5e40;fill-rule:nonzero;stroke:#7b5e40;stroke-width:1.51px;"/><path d="M161,27l-255,156l266,-7l-11,-149Z" style="fill:#468821;fill-rule:nonzero;stroke:#468821;stroke-width:1.51px;"/><path d="M138,396l-211,213l270,43l-59,-256Z" style="fill:#9ab687;fill-rule:nonzero;stroke:#9ab687;stroke-width:1.51px;"/><path d="M-110,-16l16,199l255,-156l-271,-43Z" style="fill:#32711c;fill-rule:nonzero;stroke:#32711c;stroke-width:1.51px;"/><path d="M-94,183l-18,212l250,1l-232,-213Z" style="fill:#6ea04d;fill-rule:nonzero;stroke:#6ea04d;stroke-width:1.51px;"/><path d="M-112,395l39,214l211,-213l-250,-1Z" style="fill:#89ab76;fill-rule:nonzero;stroke:#89ab76;stroke-width:1.51px;"/><path d="M2014,857l37,-214l-331,62l294,152Z" style="fill:#c36c95;fill-rule:nonzero;stroke:#c36c95;stroke-width:1.51px;"/><path d="M-17,-267l-93,251l271,43l-178,-294Z" style="fill:#286519;fill-rule:nonzero;stroke:#286519;stroke-width:1.51px;"/><path d="M195,-310l-212,43l178,294l34,-337Z" style="fill:#32711c;fill-rule:nonzero;stroke:#32711c;stroke-width:1.51px;"/><path d="M119,1160l298,-52l-196,-189l-102,241Z" style="fill:#876749;fill-rule:nonzero;stroke:#876749;stroke-width:1.51px;"/><path d="M1809,1137l205,-280l-292,96l87,184Z" style="fill:#b1126e;fill-rule:nonzero;stroke:#b1126e;stroke-width:1.51px;"/><path d="M1722,953l292,-96l-294,-152l2,248Z" style="fill:#c9558f;fill-rule:nonzero;stroke:#c9558f;stroke-width:1.51px;"/><path d="M1301,1290l231,48l-57,-268l-174,220Z" style="fill:#bc5889;fill-rule:nonzero;stroke:#bc5889;stroke-width:1.51px;"/><path d="M1532,1338l277,-201l-334,-67l57,268Z" style="fill:#b23676;fill-rule:nonzero;stroke:#b23676;stroke-width:1.51px;"/><path d="M-73,609l47,281l223,-238l-270,-43Z" style="fill:#949a7c;fill-rule:nonzero;stroke:#949a7c;stroke-width:1.51px;"/><path d="M1994,11l20,-277l-281,167l261,110Z" style="fill:#684939;fill-rule:nonzero;stroke:#684939;stroke-width:1.51px;"/><path d="M-26,890l145,270l102,-241l-247,-29Z" style="fill:#89604f;fill-rule:nonzero;stroke:#89604f;stroke-width:1.51px;"/><path d="M1809,1137l192,-7l13,-273l-205,280Z" style="fill:#98065a;fill-rule:nonzero;stroke:#98065a;stroke-width:1.51px;"/><path d="M-26,890l-42,161l187,109l-145,-270Z" style="fill:#745042;fill-rule:nonzero;stroke:#745042;stroke-width:1.51px;"/><path d="M-68,1051l13,352l174,-243l-187,-109Z" style="fill:#674939;fill-rule:nonzero;stroke:#674939;stroke-width:1.51px;"/></svg>