<svg xmlns="http://www.w3.org/2000/svg" width="1440" height="900"><path d="M887,539L714,356L745,611Z" fill="#ecf7a5" stroke="#ecf7a5" stroke-width="1.51"/><path d="M887,539L909,317L714,356Z" fill="#f0f19d" stroke="#f0f19d" stroke-width="1.51"/><path d="M745,611L855,813L887,539Z" fill="#bce280" stroke="#bce280" stroke-width="1.51"/><path d="M552,713L722,709L745,611Z" fill="#c3e08a" stroke="#c3e08a" stroke-width="1.51"/><path d="M714,356L472,405L745,611Z" fill="#fef6af" stroke="#fef6af" stroke-width="1.51"/><path d="M465,594L552,713L745,611Z" fill="#d0dd7c" stroke="#d0dd7c" stroke-width="1.51"/><path d="M472,405L465,594L745,611Z" fill="#ede689" stroke="#ede689" stroke-width="1.51"/><path d="M909,317L725,152L714,356Z" fill="#f9d585" stroke="#f9d585" stroke-width="1.51"/><path d="M714,356L547,79L472,405Z" fill="#feca79" stroke="#feca79" stroke-width="1.51"/><path d="M1165,404L947,205L909,317Z" fill="#d5d06e" stroke="#d5d06e" stroke-width="1.51"/><path d="M947,205L725,152L909,317Z" fill="#eec06e" stroke="#eec06e" stroke-width="1.51"/><path d="M722,709L855,813L745,611Z" fill="#b1dd87" stroke="#b1dd87" stroke-width="1.51"/><path d="M887,539L1165,404L909,317Z" fill="#d7e98f" stroke="#d7e98f" stroke-width="1.51"/><path d="M562,905L855,813L722,709Z" fill="#99cb84" stroke="#99cb84" stroke-width="1.51"/><path d="M1154,610L1165,404L887,539Z" fill="#b8e07f" stroke="#b8e07f" stroke-width="1.51"/><path d="M1109,794L1154,610L887,539Z" fill="#97d269" stroke="#97d269" stroke-width="1.51"/><path d="M261,767L562,905L552,713Z" fill="#a4ae5e" stroke="#a4ae5e" stroke-width="1.51"/><path d="M472,405L335,507L465,594Z" fill="#f6d180" stroke="#f6d180" stroke-width="1.51"/><path d="M313,376L335,507L472,405Z" fill="#ffc783" stroke="#ffc783" stroke-width="1.51"/><path d="M725,152L547,79L714,356Z" fill="#ffb778" stroke="#ffb778" stroke-width="1.51"/><path d="M787,-28L547,79L725,152Z" fill="#ed9869" stroke="#ed9869" stroke-width="1.51"/><path d="M855,813L1109,794L887,539Z" fill="#94d06d" stroke="#94d06d" stroke-width="1.51"/><path d="M547,79L313,376L472,405Z" fill="#feb566" stroke="#feb566" stroke-width="1.51"/><path d="M552,713L562,905L722,709Z" fill="#a6c877" stroke="#a6c877" stroke-width="1.51"/><path d="M855,813L883,1014L1109,794Z" fill="#6dab5a" stroke="#6dab5a" stroke-width="1.51"/><path d="M261,767L552,713L465,594Z" fill="#c4bb62" stroke="#c4bb62" stroke-width="1.51"/><path d="M947,205L787,-28L725,152Z" fill="#eba161" stroke="#eba161" stroke-width="1.51"/><path d="M1165,404L1164,191L947,205Z" fill="#c6bd63" stroke="#c6bd63" stroke-width="1.51"/><path d="M959,-107L787,-28L947,205Z" fill="#c98c52" stroke="#c98c52" stroke-width="1.51"/><path d="M562,905L725,1022L855,813Z" fill="#8bb177" stroke="#8bb177" stroke-width="1.51"/><path d="M725,1022L883,1014L855,813Z" fill="#7eac67" stroke="#7eac67" stroke-width="1.51"/><path d="M1154,610L1327,614L1165,404Z" fill="#95ce72" stroke="#95ce72" stroke-width="1.51"/><path d="M1165,404L1364,404L1164,191Z" fill="#a9bf6b" stroke="#a9bf6b" stroke-width="1.51"/><path d="M1378,713L1327,614L1154,610Z" fill="#67b75d" stroke="#67b75d" stroke-width="1.51"/><path d="M1378,713L1154,610L1109,794Z" fill="#5fb75f" stroke="#5fb75f" stroke-width="1.51"/><path d="M335,507L261,767L465,594Z" fill="#d8b75e" stroke="#d8b75e" stroke-width="1.51"/><path d="M562,905L663,1087L725,1022Z" fill="#8cab6c" stroke="#8cab6c" stroke-width="1.51"/><path d="M152,557L261,767L335,507Z" fill="#d8a455" stroke="#d8a455" stroke-width="1.51"/><path d="M1327,614L1364,404L1165,404Z" fill="#96cb80" stroke="#96cb80" stroke-width="1.51"/><path d="M1159,-21L959,-107L947,205Z" fill="#b68546" stroke="#b68546" stroke-width="1.51"/><path d="M280,5L289,86L547,79Z" fill="#e0613d" stroke="#e0613d" stroke-width="1.51"/><path d="M1159,-21L947,205L1164,191Z" fill="#c1944a" stroke="#c1944a" stroke-width="1.51"/><path d="M495,1205L663,1087L562,905Z" fill="#8da35f" stroke="#8da35f" stroke-width="1.51"/><path d="M725,1022L663,1087L883,1014Z" fill="#86b072" stroke="#86b072" stroke-width="1.51"/><path d="M547,79L289,86L313,376Z" fill="#f8844c" stroke="#f8844c" stroke-width="1.51"/><path d="M134,396L152,557L335,507Z" fill="#f2a86c" stroke="#f2a86c" stroke-width="1.51"/><path d="M490,-104L547,79L787,-28Z" fill="#d7845b" stroke="#d7845b" stroke-width="1.51"/><path d="M134,396L335,507L313,376Z" fill="#fdb075" stroke="#fdb075" stroke-width="1.51"/><path d="M1072,1089L1129,990L883,1014Z" fill="#5a9d4f" stroke="#5a9d4f" stroke-width="1.51"/><path d="M883,1014L1129,990L1109,794Z" fill="#579c4f" stroke="#579c4f" stroke-width="1.51"/><path d="M1259,2L1159,-21L1164,191Z" fill="#a17b40" stroke="#a17b40" stroke-width="1.51"/><path d="M84,149L134,396L313,376Z" fill="#f1874e" stroke="#f1874e" stroke-width="1.51"/><path d="M784,-243L490,-104L787,-28Z" fill="#d98c68" stroke="#d98c68" stroke-width="1.51"/><path d="M1364,404L1306,109L1164,191Z" fill="#a59e53" stroke="#a59e53" stroke-width="1.51"/><path d="M1327,614L1493,562L1364,404Z" fill="#80b367" stroke="#80b367" stroke-width="1.51"/><path d="M1369,932L1378,713L1109,794Z" fill="#1e9850" stroke="#1e9850" stroke-width="1.51"/><path d="M663,1087L986,1109L883,1014Z" fill="#7bab63" stroke="#7bab63" stroke-width="1.51"/><path d="M164,922L269,935L261,767Z" fill="#92713a" stroke="#92713a" stroke-width="1.51"/><path d="M261,767L269,935L562,905Z" fill="#978949" stroke="#978949" stroke-width="1.51"/><path d="M490,-104L280,5L547,79Z" fill="#d36743" stroke="#d36743" stroke-width="1.51"/><path d="M289,86L84,149L313,376Z" fill="#f06b41" stroke="#f06b41" stroke-width="1.51"/><path d="M986,1109L1072,1089L883,1014Z" fill="#63a153" stroke="#63a153" stroke-width="1.51"/><path d="M1129,990L1369,932L1109,794Z" fill="#2e8b49" stroke="#2e8b49" stroke-width="1.51"/><path d="M1306,109L1259,2L1164,191Z" fill="#a37e3f" stroke="#a37e3f" stroke-width="1.51"/><path d="M1134,-193L912,-195L959,-107Z" fill="#b28246" stroke="#b28246" stroke-width="1.51"/><path d="M1134,-193L959,-107L1159,-21Z" fill="#a47b44" stroke="#a47b44" stroke-width="1.51"/><path d="M959,-107L912,-195L787,-28Z" fill="#c58953" stroke="#c58953" stroke-width="1.51"/><path d="M912,-195L784,-243L787,-28Z" fill="#cd8b5b" stroke="#cd8b5b" stroke-width="1.51"/><path d="M1378,713L1493,562L1327,614Z" fill="#62a654" stroke="#62a654" stroke-width="1.51"/><path d="M1364,404L1587,283L1306,109Z" fill="#93904c" stroke="#93904c" stroke-width="1.51"/><path d="M385,1158L495,1205L562,905Z" fill="#909552" stroke="#909552" stroke-width="1.51"/><path d="M92,802L164,922L261,767Z" fill="#97743a" stroke="#97743a" stroke-width="1.51"/><path d="M92,802L261,767L152,557Z" fill="#b68b46" stroke="#b68b46" stroke-width="1.51"/><path d="M-36,507L92,802L152,557Z" fill="#c08a48" stroke="#c08a48" stroke-width="1.51"/><path d="M1360,1109L1369,932L1129,990Z" fill="#128144" stroke="#128144" stroke-width="1.51"/><path d="M1378,713L1482,740L1493,562Z" fill="#4f994e" stroke="#4f994e" stroke-width="1.51"/><path d="M134,396L-36,507L152,557Z" fill="#e29764" stroke="#e29764" stroke-width="1.51"/><path d="M134,8L84,149L289,86Z" fill="#d73529" stroke="#d73529" stroke-width="1.51"/><path d="M1369,932L1482,740L1378,713Z" fill="#1b8847" stroke="#1b8847" stroke-width="1.51"/><path d="M1259,2L1134,-193L1159,-21Z" fill="#937340" stroke="#937340" stroke-width="1.51"/><path d="M912,-195L1320,-310L784,-243Z" fill="#b28146" stroke="#b28146" stroke-width="1.51"/><path d="M385,1158L562,905L269,935Z" fill="#918948" stroke="#918948" stroke-width="1.51"/><path d="M663,1087L495,1205L986,1109Z" fill="#8bb177" stroke="#8bb177" stroke-width="1.51"/><path d="M108,1091L385,1158L269,935Z" fill="#8f6d39" stroke="#8f6d39" stroke-width="1.51"/><path d="M280,5L134,8L289,86Z" fill="#d03c2f" stroke="#d03c2f" stroke-width="1.51"/><path d="M87,-212L134,8L280,5Z" fill="#c02429" stroke="#c02429" stroke-width="1.51"/><path d="M367,-204L280,5L490,-104Z" fill="#d05a3d" stroke="#d05a3d" stroke-width="1.51"/><path d="M526,-281L367,-204L490,-104Z" fill="#d36c46" stroke="#d36c46" stroke-width="1.51"/><path d="M1320,-310L526,-281L784,-243Z" fill="#c68954" stroke="#c68954" stroke-width="1.51"/><path d="M784,-243L526,-281L490,-104Z" fill="#d78359" stroke="#d78359" stroke-width="1.51"/><path d="M-60,396L-36,507L134,396Z" fill="#dc8e69" stroke="#dc8e69" stroke-width="1.51"/><path d="M84,149L-60,396L134,396Z" fill="#de794c" stroke="#de794c" stroke-width="1.51"/><path d="M-45,144L-60,396L84,149Z" fill="#d0573c" stroke="#d0573c" stroke-width="1.51"/><path d="M1750,592L1587,283L1493,562Z" fill="#85af70" stroke="#85af70" stroke-width="1.51"/><path d="M1493,562L1587,283L1364,404Z" fill="#8cac6e" stroke="#8cac6e" stroke-width="1.51"/><path d="M1306,109L1521,-54L1259,2Z" fill="#7e5e34" stroke="#7e5e34" stroke-width="1.51"/><path d="M1259,2L1320,-310L1134,-193Z" fill="#8a6c3d" stroke="#8a6c3d" stroke-width="1.51"/><path d="M1369,932L1513,939L1482,740Z" fill="#046f3b" stroke="#046f3b" stroke-width="1.51"/><path d="M1072,1089L1360,1109L1129,990Z" fill="#328d4a" stroke="#328d4a" stroke-width="1.51"/><path d="M1479,1187L1360,1109L1072,1089Z" fill="#0c7e43" stroke="#0c7e43" stroke-width="1.51"/><path d="M1479,1187L1072,1089L986,1109Z" fill="#348e4b" stroke="#348e4b" stroke-width="1.51"/><path d="M1482,740L1678,734L1493,562Z" fill="#4c984e" stroke="#4c984e" stroke-width="1.51"/><path d="M1360,1109L1513,939L1369,932Z" fill="#026c39" stroke="#026c39" stroke-width="1.51"/><path d="M-132,-61L-45,144L134,8Z" fill="#ad0b27" stroke="#ad0b27" stroke-width="1.51"/><path d="M134,8L-45,144L84,149Z" fill="#c92a29" stroke="#c92a29" stroke-width="1.51"/><path d="M1587,283L1592,167L1306,109Z" fill="#92743d" stroke="#92743d" stroke-width="1.51"/><path d="M-92,925L164,922L92,802Z" fill="#7c5830" stroke="#7c5830" stroke-width="1.51"/><path d="M-92,925L108,1091L164,922Z" fill="#7a542e" stroke="#7a542e" stroke-width="1.51"/><path d="M164,922L108,1091L269,935Z" fill="#8a6232" stroke="#8a6232" stroke-width="1.51"/><path d="M385,1158L-41,1222L495,1205Z" fill="#91713b" stroke="#91713b" stroke-width="1.51"/><path d="M1592,167L1521,-54L1306,109Z" fill="#835a2e" stroke="#835a2e" stroke-width="1.51"/><path d="M1513,939L1678,734L1482,740Z" fill="#128144" stroke="#128144" stroke-width="1.51"/><path d="M1587,283L1749,194L1592,167Z" fill="#917d42" stroke="#917d42" stroke-width="1.51"/><path d="M1521,-54L1320,-310L1259,2Z" fill="#785a34" stroke="#785a34" stroke-width="1.51"/><path d="M1134,-193L1320,-310L912,-195Z" fill="#9d7843" stroke="#9d7843" stroke-width="1.51"/><path d="M-152,787L-92,925L92,802Z" fill="#7b5f36" stroke="#7b5f36" stroke-width="1.51"/><path d="M-152,787L92,802L-36,507Z" fill="#9e7943" stroke="#9e7943" stroke-width="1.51"/><path d="M-152,787L-36,507L-245,705Z" fill="#a77d44" stroke="#a77d44" stroke-width="1.51"/><path d="M-246,577L-36,507L-60,396Z" fill="#d28d62" stroke="#d28d62" stroke-width="1.51"/><path d="M367,-204L87,-212L280,5Z" fill="#c83830" stroke="#c83830" stroke-width="1.51"/><path d="M526,-281L87,-212L367,-204Z" fill="#ce4d38" stroke="#ce4d38" stroke-width="1.51"/><path d="M1678,734L1750,592L1493,562Z" fill="#5e9f50" stroke="#5e9f50" stroke-width="1.51"/><path d="M1592,167L1787,-54L1521,-54Z" fill="#75522d" stroke="#75522d" stroke-width="1.51"/><path d="M1750,592L1749,301L1587,283Z" fill="#8ca968" stroke="#8ca968" stroke-width="1.51"/><path d="M1360,1109L1479,1187L1513,939Z" fill="#006837" stroke="#006837" stroke-width="1.51"/><path d="M1513,939L1672,977L1678,734Z" fill="#026c39" stroke="#026c39" stroke-width="1.51"/><path d="M1678,734L1899,797L1750,592Z" fill="#40934d" stroke="#40934d" stroke-width="1.51"/><path d="M495,1205L1479,1187L986,1109Z" fill="#62a052" stroke="#62a052" stroke-width="1.51"/><path d="M-152,787L-342,951L-92,925Z" fill="#72512f" stroke="#72512f" stroke-width="1.51"/><path d="M-237,299L-246,577L-60,396Z" fill="#d98b66" stroke="#d98b66" stroke-width="1.51"/><path d="M-237,299L-60,396L-45,144Z" fill="#d36944" stroke="#d36944" stroke-width="1.51"/><path d="M-355,211L-237,299L-45,144Z" fill="#cf523a" stroke="#cf523a" stroke-width="1.51"/><path d="M1749,301L1749,194L1587,283Z" fill="#918a49" stroke="#918a49" stroke-width="1.51"/><path d="M1521,-54L1547,-293L1320,-310Z" fill="#704e2d" stroke="#704e2d" stroke-width="1.51"/><path d="M1963,195L1749,194L1749,301Z" fill="#928144" stroke="#928144" stroke-width="1.51"/><path d="M1676,1161L1672,977L1513,939Z" fill="#006837" stroke="#006837" stroke-width="1.51"/><path d="M-246,577L-245,705L-36,507Z" fill="#ba844b" stroke="#ba844b" stroke-width="1.51"/><path d="M87,-212L-132,-61L134,8Z" fill="#aa0726" stroke="#aa0726" stroke-width="1.51"/><path d="M87,-212L-90,-205L-132,-61Z" fill="#a50026" stroke="#a50026" stroke-width="1.51"/><path d="M526,-281L-90,-205L87,-212Z" fill="#c1262a" stroke="#c1262a" stroke-width="1.51"/><path d="M1709,-232L1547,-293L1521,-54Z" fill="#704e2d" stroke="#704e2d" stroke-width="1.51"/><path d="M495,1205L-41,1222L1479,1187Z" fill="#8caa6b" stroke="#8caa6b" stroke-width="1.51"/><path d="M108,1091L-41,1222L385,1158Z" fill="#875e2f" stroke="#875e2f" stroke-width="1.51"/><path d="M-92,925L-41,1222L108,1091Z" fill="#704e2d" stroke="#704e2d" stroke-width="1.51"/><path d="M-306,1159L-41,1222L-92,925Z" fill="#704e2d" stroke="#704e2d" stroke-width="1.51"/><path d="M1479,1187L1676,1161L1513,939Z" fill="#006837" stroke="#006837" stroke-width="1.51"/><path d="M1957,560L1904,362L1750,592Z" fill="#80ad69" stroke="#80ad69" stroke-width="1.51"/><path d="M1749,194L1787,-54L1592,167Z" fill="#896030" stroke="#896030" stroke-width="1.51"/><path d="M1750,592L1904,362L1749,301Z" fill="#8cad6f" stroke="#8cad6f" stroke-width="1.51"/><path d="M1899,797L1678,734L1672,977Z" fill="#097940" stroke="#097940" stroke-width="1.51"/><path d="M1963,195L1787,-54L1749,194Z" fill="#8a6231" stroke="#8a6231" stroke-width="1.51"/><path d="M-298,-23L-355,211L-45,144Z" fill="#c1272a" stroke="#c1272a" stroke-width="1.51"/><path d="M-237,299L-355,211L-246,577Z" fill="#d68156" stroke="#d68156" stroke-width="1.51"/><path d="M-246,577L-342,951L-245,705Z" fill="#927240" stroke="#927240" stroke-width="1.51"/><path d="M-298,-23L-45,144L-132,-61Z" fill="#aa0726" stroke="#aa0726" stroke-width="1.51"/><path d="M1946,903L1899,797L1672,977Z" fill="#016a38" stroke="#016a38" stroke-width="1.51"/><path d="M-318,-199L-298,-23L-132,-61Z" fill="#a50026" stroke="#a50026" stroke-width="1.51"/><path d="M1787,-54L1709,-232L1521,-54Z" fill="#704e2d" stroke="#704e2d" stroke-width="1.51"/><path d="M1899,797L1957,560L1750,592Z" fill="#579c4f" stroke="#579c4f" stroke-width="1.51"/><path d="M-245,705L-342,951L-152,787Z" fill="#806539" stroke="#806539" stroke-width="1.51"/><path d="M-355,211L-342,951L-246,577Z" fill="#be864e" stroke="#be864e" stroke-width="1.51"/><path d="M1787,-54L1886,-218L1709,-232Z" fill="#704e2d" stroke="#704e2d" stroke-width="1.51"/><path d="M1904,362L1963,195L1749,301Z" fill="#91914f" stroke="#91914f" stroke-width="1.51"/><path d="M1957,560L1963,195L1904,362Z" fill="#8da563" stroke="#8da563" stroke-width="1.51"/><path d="M1946,1120L1946,903L1672,977Z" fill="#006837" stroke="#006837" stroke-width="1.51"/><path d="M1899,797L1946,903L1957,560Z" fill="#2e8b49" stroke="#2e8b49" stroke-width="1.51"/><path d="M-342,951L-306,1159L-92,925Z" fill="#704e2d" stroke="#704e2d" stroke-width="1.51"/><path d="M526,-281L-318,-199L-90,-205Z" fill="#ab0927" stroke="#ab0927" stroke-width="1.51"/><path d="M-90,-205L-318,-199L-132,-61Z" fill="#a50026" stroke="#a50026" stroke-width="1.51"/><path d="M-298,-23L-318,-199L-355,211Z" fill="#a50026" stroke="#a50026" stroke-width="1.51"/><path d="M1963,195L1949,-54L1787,-54Z" fill="#77532e" stroke="#77532e" stroke-width="1.51"/><path d="M1949,-54L1886,-218L1787,-54Z" fill="#704e2d" stroke="#704e2d" stroke-width="1.51"/><path d="M1709,-232L1886,-218L1547,-293Z" fill="#704e2d" stroke="#704e2d" stroke-width="1.51"/><path d="M1946,903L1946,1120L1957,560Z" fill="#05723c" stroke="#05723c" stroke-width="1.51"/><path d="M1676,1161L1946,1120L1672,977Z" fill="#006837" stroke="#006837" stroke-width="1.51"/></svg>